# File created by Blade
# Date/Time:  Fri Jan 16 14:33:51 2015
#---------------------------------------------------------
:version 1.10
:name HOM
:units
  mass 1.0
  length 1.000000
  angle deg
:documentation
     Acclaim Skeleton File
:root
   axis xyz
   order TX TY TZ RX RY RZ
   position 0.000000 0.000000 0.000000
   orientation 0 0 0
:bonedata
   begin
      id 1
      name Spine_dum
      direction 0.000000 1.000000 0.000000
      length 7.067664
      axis 0.0 0.0 0.0 xyz
   end
   begin
      id 2
      name LeftUpLeg_dum
      direction 1.000000 0.000000 0.000000
      length 4.013002
      axis 0.0 0.0 0.0 xyz
   end
   begin
      id 3
      name RightUpLeg_dum
      direction -1.000000 0.000000 0.000000
      length 4.013002
      axis 0.0 0.0 0.0 xyz
   end
   begin
      id 4
      name Spine
      direction 0.000000 1.000000 0.000000
      length 0.000000
      axis 0.0 0.0 0.0 xyz
      dof rx ry rz
   end
   begin
      id 5
      name Spine_dum1
      direction 0.000000 1.000000 0.000000
      length 15.039886
      axis 0.0 0.0 0.0 xyz
   end
   begin
      id 6
      name Spine_dum2
      direction 0.000000 1.000000 0.000000
      length 10.530368
      axis 0.0 0.0 0.0 xyz
   end
   begin
      id 7
      name Spine_dum3
      direction 0.000000 1.000000 0.000000
      length 10.530368
      axis 0.0 0.0 0.0 xyz
   end
   begin
      id 8
      name Head
      direction 0.000000 1.000000 0.000000
      length 4.527550
      axis 0.0 0.0 0.0 xyz
      dof rx ry rz
   end
   begin
      id 9
      name LeftShoulder
      direction 1.000000 0.000000 0.000000
      length 7.028855
      axis 0.0 0.0 -90.0 xyz
      dof rx ry rz
   end
   begin
      id 10
      name LeftArm
      direction 1.000000 0.000000 0.000000
      length 10.797705
      axis 0.0 0.0 -90.0 xyz
      dof rx ry rz
   end
   begin
      id 11
      name LeftForeArm
      direction 1.000000 0.000000 0.000000
      length 7.907442
      axis 0.0 0.0 -90.0 xyz
      dof ry rz rx
   end
   begin
      id 12
      name LeftHand
      direction 0.000000 0.000000 0.000000
      length 0.000000
      axis 0.0 0.0 -90.0 xyz
      dof rx ry rz
   end
   begin
      id 13
      name LeftHand_dum1
      direction 0.000000 0.000000 0.000000
      length 0.000000
      axis 0.0 0.0 -90.0 xyz
   end
   begin
      id 14
      name LeftHand_dum2
      direction 1.000000 0.000000 0.000000
      length 3.937000
      axis 0.0 0.0 -90.0 xyz
   end
   begin
      id 15
      name LeftHandThumb1
      direction 0.000000 0.000000 1.000000
      length 3.937000
      axis 0.0 0.0 -90.0 xyz
      dof rx rz ry
   end
   begin
      id 16
      name RightShoulder
      direction -1.000000 0.000000 0.000000
      length 7.028855
      axis 0.0 0.0 90.0 xyz
      dof rx ry rz
   end
   begin
      id 17
      name RightArm
      direction -1.000000 0.000000 0.000000
      length 10.797705
      axis 0.0 0.0 90.0 xyz
      dof rx ry rz
   end
   begin
      id 18
      name RightForeArm
      direction -1.000000 0.000000 0.000000
      length 7.907442
      axis 0.0 0.0 90.0 xyz
      dof ry rz rx
   end
   begin
      id 19
      name RightHand
      direction 0.000000 0.000000 0.000000
      length 0.000000
      axis 0.0 0.0 90.0 xyz
      dof rx ry rz
   end
   begin
      id 20
      name RightHand_dum1
      direction 0.000000 0.000000 0.000000
      length 0.000000
      axis 0.0 0.0 90.0 xyz
   end
   begin
      id 21
      name RightHand_dum2
      direction -1.000000 0.000000 0.000000
      length 3.937000
      axis 0.0 0.0 90.0 xyz
   end
   begin
      id 22
      name RightHandThumb1
      direction 0.000000 0.000000 1.000000
      length 3.937000
      axis 0.0 0.0 90.0 xyz
      dof rx rz ry
   end
   begin
      id 23
      name LeftUpLeg
      direction 0.000000 -1.000000 0.000000
      length 16.899758
      axis 0.0 0.0 0.0 xyz
      dof rx ry rz
   end
   begin
      id 24
      name LeftLeg
      direction 0.000000 -1.000000 0.000000
      length 17.389183
      axis 0.0 0.0 0.0 xyz
      dof rx ry rz
   end
   begin
      id 25
      name LeftFoot
      direction 0.000000 -0.258819 0.965926
      length 4.924528
      axis 15.0 0.0 0.0 xyz
      dof rx ry rz
   end
   begin
      id 26
      name LeftToeBase
      direction 0.000000 0.000000 1.000000
      length 2.952750
      axis 0.0 0.0 0.0 xyz
      dof rx ry rz
   end
   begin
      id 27
      name RightUpLeg
      direction 0.000000 -1.000000 0.000000
      length 16.899758
      axis 0.0 0.0 0.0 xyz
      dof rx ry rz
   end
   begin
      id 28
      name RightLeg
      direction 0.000000 -1.000000 0.000000
      length 17.389183
      axis 0.0 0.0 0.0 xyz
      dof rx ry rz
   end
   begin
      id 29
      name RightFoot
      direction 0.000000 -0.258819 0.965926
      length 4.924528
      axis 15.0 0.0 0.0 xyz
      dof rx ry rz
   end
   begin
      id 30
      name RightToeBase
      direction 0.000000 0.000000 1.000000
      length 2.952750
      axis 0.0 0.0 0.0 xyz
      dof rx ry rz
   end
:hierarchy
   begin
      root Spine_dum LeftUpLeg_dum RightUpLeg_dum
      Spine_dum Spine
      LeftUpLeg_dum LeftUpLeg
      RightUpLeg_dum RightUpLeg
      Spine Spine_dum1 Spine_dum2 Spine_dum3
      Spine_dum1 Head
      Spine_dum2 LeftShoulder
      Spine_dum3 RightShoulder
      LeftShoulder LeftArm
      LeftArm LeftForeArm
      LeftForeArm LeftHand
      LeftHand LeftHand_dum1 LeftHand_dum2
      LeftHand_dum1 LeftHandThumb1
      RightShoulder RightArm
      RightArm RightForeArm
      RightForeArm RightHand
      RightHand RightHand_dum1 RightHand_dum2
      RightHand_dum1 RightHandThumb1
      LeftUpLeg LeftLeg
      LeftLeg LeftFoot
      LeftFoot LeftToeBase
      RightUpLeg RightLeg
      RightLeg RightFoot
      RightFoot RightToeBase
   end

# File created by Blade
# Date/Time:  Fri Jan 16 14:33:41 2015
# Frame Rate: 120.000 fps
#------------------------------------------------------
:FULLY-SPECIFIED
:DEGREES
126
root 18.950393 35.610717 -25.060681 -171.292111 -1.344841 -178.847530
Spine -20.475919 -0.198947 0.372258
Head 8.161107 -1.650448 2.045064
LeftShoulder -12.719525 -24.771332 17.359545
LeftArm 8.663509 3.520803 -9.097554
LeftForeArm 9.579934 -0.000000 0.043064
LeftHand -7.930009 0.000000 -8.517676
LeftHandThumb1 -26.253704 0.000000 33.147579
RightShoulder -12.587951 -9.567376 -6.145611
RightArm 12.543848 36.437907 14.839815
RightForeArm -36.670207 -0.000000 6.668860
RightHand -6.771925 -0.000000 8.757435
RightHandThumb1 -24.326973 -0.000000 -32.862282
LeftUpLeg 1.182915 8.953397 0.505885
LeftLeg -5.941381 -0.000000 0.000000
LeftFoot -21.586062 26.671166 -15.569686
LeftToeBase 24.268191 -0.000000 -0.000000
RightUpLeg -0.092368 -9.047112 2.776552
RightLeg -3.693424 -0.000000 0.000000
RightFoot -21.829543 -25.818280 16.552708
RightToeBase 22.392471 -0.000000 -0.000000
127
root 18.949888 35.610870 -25.061098 -171.299190 -1.349091 -178.852164
Spine -20.468256 -0.210517 0.378271
Head 8.184769 -1.652646 2.034014
LeftShoulder -12.701995 -24.760350 17.338070
LeftArm 8.651112 3.494491 -9.069887
LeftForeArm 9.607778 0.000000 0.042462
LeftHand -7.925528 -0.000000 -8.557028
LeftHandThumb1 -26.253704 0.000000 33.147579
RightShoulder -12.556053 -9.521842 -6.153336
RightArm 12.447193 36.505150 14.802983
RightForeArm -36.802566 -0.000000 6.712896
RightHand -6.621112 -0.000000 8.833981
RightHandThumb1 -24.326973 -0.000000 -32.862282
LeftUpLeg 1.189845 8.962757 0.502189
LeftLeg -5.937360 -0.000000 0.000000
LeftFoot -21.585312 26.652438 -15.562416
LeftToeBase 24.289813 -0.000000 -0.000000
RightUpLeg -0.082078 -9.046997 2.769987
RightLeg -3.696983 -0.000000 0.000000
RightFoot -21.826352 -25.831961 16.557683
RightToeBase 22.399528 -0.000000 -0.000000
128
root 18.950267 35.610641 -25.061359 -171.298292 -1.353951 -178.851260
Spine -20.462949 -0.228029 0.375597
Head 8.181242 -1.680671 2.056114
LeftShoulder -12.708846 -24.754962 17.360866
LeftArm 8.654538 3.486169 -9.071995
LeftForeArm 9.654166 0.000000 0.028663
LeftHand -7.882387 0.000000 -8.513144
LeftHandThumb1 -26.253704 0.000000 33.147579
RightShoulder -12.581012 -9.541325 -6.129289
RightArm 12.514367 36.484248 14.821363
RightForeArm -36.705956 -0.000000 6.664165
RightHand -6.688052 -0.000000 8.819976
RightHandThumb1 -24.326973 -0.000000 -32.862282
LeftUpLeg 1.188132 8.972862 0.504200
LeftLeg -5.937794 -0.000000 0.000000
LeftFoot -21.577073 26.634817 -15.564730
LeftToeBase 24.283928 -0.000000 -0.000000
RightUpLeg -0.080353 -9.046893 2.770840
RightLeg -3.698665 -0.000000 0.000000
RightFoot -21.833698 -25.825297 16.550248
RightToeBase 22.407567 -0.000000 -0.000000
129
root 18.949959 35.610657 -25.061719 -171.299421 -1.362879 -178.849303
Spine -20.458780 -0.234409 0.379855
Head 8.198733 -1.672413 2.070135
LeftShoulder -12.684917 -24.782759 17.368169
LeftArm 8.618449 3.529062 -9.078229
LeftForeArm 9.498957 0.000000 0.025946
LeftHand -7.856094 -0.000000 -8.389649
LeftHandThumb1 -26.253704 0.000000 33.147579
RightShoulder -12.596218 -9.556759 -6.117745
RightArm 12.523802 36.503422 14.825517
RightForeArm -36.676175 -0.000000 6.685676
RightHand -6.765061 -0.000000 8.852635
RightHandThumb1 -24.326973 -0.000000 -32.862282
LeftUpLeg 1.192895 8.954477 0.507239
LeftLeg -5.947443 -0.000000 0.000000
LeftFoot -21.565426 26.657679 -15.548636
LeftToeBase 24.255524 -0.000000 -0.000000
RightUpLeg -0.076231 -9.049102 2.773415
RightLeg -3.704209 -0.000000 0.000000
RightFoot -21.833516 -25.834952 16.578500
RightToeBase 22.415564 -0.000000 -0.000000
130
root 18.950523 35.610236 -25.062432 -171.297973 -1.368716 -178.852066
Spine -20.459688 -0.246096 0.373278
Head 8.204282 -1.702299 2.070481
LeftShoulder -12.679545 -24.759317 17.382081
LeftArm 8.618913 3.493165 -9.084639
LeftForeArm 9.498703 -0.000000 0.027144
LeftHand -7.883351 -0.000000 -8.380483
LeftHandThumb1 -26.253704 0.000000 33.147579
RightShoulder -12.605166 -9.561650 -6.108885
RightArm 12.525051 36.509096 14.833246
RightForeArm -36.684131 -0.000000 6.700893
RightHand -6.747063 -0.000000 8.854017
RightHandThumb1 -24.326973 -0.000000 -32.862282
LeftUpLeg 1.190782 8.950483 0.506163
LeftLeg -5.943197 -0.000000 0.000000
LeftFoot -21.586245 26.643453 -15.566711
LeftToeBase 24.304941 -0.000000 -0.000000
RightUpLeg -0.074171 -9.063256 2.773480
RightLeg -3.708290 -0.000000 0.000000
RightFoot -21.825067 -25.817619 16.571962
RightToeBase 22.357128 -0.000000 -0.000000
131
root 18.950289 35.610280 -25.062697 -171.297379 -1.377772 -178.850345
Spine -20.454227 -0.258629 0.383051
Head 8.210359 -1.712253 2.068289
LeftShoulder -12.670961 -24.791221 17.381848
LeftArm 8.591512 3.494677 -9.073358
LeftForeArm 9.499967 -0.000000 0.049127
LeftHand -7.913138 0.000000 -8.366767
LeftHandThumb1 -26.253704 0.000000 33.147579
RightShoulder -12.615421 -9.568625 -6.107433
RightArm 12.525832 36.527670 14.841085
RightForeArm -36.687002 -0.000000 6.711163
RightHand -6.767359 -0.000000 8.840394
RightHandThumb1 -24.326973 -0.000000 -32.862282
LeftUpLeg 1.187709 8.948306 0.508538
LeftLeg -5.940430 -0.000000 0.000000
LeftFoot -21.579971 26.642568 -15.546919
LeftToeBase 24.319087 -0.000000 -0.000000
RightUpLeg -0.072555 -9.058458 2.774766
RightLeg -3.708340 -0.000000 0.000000
RightFoot -21.829293 -25.835384 16.557143
RightToeBase 22.417961 -0.000000 -0.000000
132
root 18.950495 35.610405 -25.063380 -171.298944 -1.385834 -178.856799
Spine -20.452595 -0.269626 0.378770
Head 8.232309 -1.705235 2.056959
LeftShoulder -12.659898 -24.772308 17.374472
LeftArm 8.603554 3.487212 -9.068621
LeftForeArm 9.354095 0.000000 0.049961
LeftHand -7.984754 -0.000000 -8.340923
LeftHandThumb1 -26.253704 0.000000 33.147579
RightShoulder -12.588034 -9.531559 -6.107478
RightArm 12.417888 36.531275 14.780868
RightForeArm -36.779110 -0.000000 6.736265
RightHand -6.637431 -0.000000 8.860062
RightHandThumb1 -24.326973 -0.000000 -32.862282
LeftUpLeg 1.188840 8.947829 0.503446
LeftLeg -5.939597 -0.000000 0.000000
LeftFoot -21.578874 26.629868 -15.568761
LeftToeBase 24.260646 -0.000000 -0.000000
RightUpLeg -0.071131 -9.061674 2.770004
RightLeg -3.704336 -0.000000 0.000000
RightFoot -21.837955 -25.839303 16.552248
RightToeBase 22.401782 -0.000000 -0.000000
133
root 18.950586 35.610388 -25.064234 -171.305923 -1.394134 -178.850162
Spine -20.436006 -0.274247 0.386427
Head 8.226857 -1.699465 2.074732
LeftShoulder -12.656394 -24.741951 17.384232
LeftArm 8.600731 3.420592 -9.090880
LeftForeArm 9.305584 0.000000 0.059253
LeftHand -7.987152 -0.000000 -8.303396
LeftHandThumb1 -26.253704 0.000000 33.147579
RightShoulder -12.631466 -9.554355 -6.098508
RightArm 12.482994 36.492257 14.821251
RightForeArm -36.714472 -0.000000 6.734598
RightHand -6.808609 0.000000 8.795196
RightHandThumb1 -24.326973 -0.000000 -32.862282
LeftUpLeg 1.194031 8.928588 0.513006
LeftLeg -5.935067 -0.000000 0.000000
LeftFoot -21.589764 26.639182 -15.570589
LeftToeBase 24.312041 -0.000000 -0.000000
RightUpLeg -0.058722 -9.064194 2.776056
RightLeg -3.712000 -0.000000 0.000000
RightFoot -21.838594 -25.846010 16.573172
RightToeBase 22.407995 -0.000000 -0.000000
134
root 18.950794 35.610057 -25.064668 -171.302534 -1.398893 -178.857188
Spine -20.435905 -0.292847 0.374532
Head 8.232355 -1.717241 2.077050
LeftShoulder -12.649571 -24.750278 17.391588
LeftArm 8.578671 3.339016 -9.064956
LeftForeArm 9.448011 -0.000000 0.044581
LeftHand -7.894784 -0.000000 -8.389463
LeftHandThumb1 -26.253704 0.000000 33.147579
RightShoulder -12.637422 -9.581642 -6.069838
RightArm 12.493751 36.492183 14.807579
RightForeArm -36.687481 -0.000000 6.716374
RightHand -6.833110 -0.000000 8.783153
RightHandThumb1 -24.326973 -0.000000 -32.862282
LeftUpLeg 1.189132 8.917557 0.507368
LeftLeg -5.931074 -0.000000 0.000000
LeftFoot -21.582622 26.648393 -15.556766
LeftToeBase 24.278416 -0.000000 -0.000000
RightUpLeg -0.063341 -9.071016 2.771730
RightLeg -3.708271 -0.000000 0.000000
RightFoot -21.839023 -25.841469 16.561950
RightToeBase 22.450876 -0.000000 -0.000000
135
root 18.951469 35.609694 -25.065480 -171.308861 -1.402482 -178.850954
Spine -20.427074 -0.307399 0.389227
Head 8.251398 -1.712739 2.053014
LeftShoulder -12.639810 -24.738353 17.399081
LeftArm 8.548089 3.304549 -9.076095
LeftForeArm 9.356465 0.000000 0.062601
LeftHand -7.951229 -0.000000 -8.337014
LeftHandThumb1 -26.253704 0.000000 33.147579
RightShoulder -12.657954 -9.584824 -6.054378
RightArm 12.523923 36.477207 14.803551
RightForeArm -36.669862 -0.000000 6.708034
RightHand -6.857894 0.000000 8.782037
RightHandThumb1 -24.326973 -0.000000 -32.862282
LeftUpLeg 1.196719 8.919857 0.515750
LeftLeg -5.933782 -0.000000 0.000000
LeftFoot -21.591023 26.646148 -15.562477
LeftToeBase 24.268496 -0.000000 -0.000000
RightUpLeg -0.057394 -9.073597 2.776709
RightLeg -3.703417 -0.000000 0.000000
RightFoot -21.843266 -25.844450 16.575125
RightToeBase 22.413016 -0.000000 -0.000000
136
root 18.951676 35.609832 -25.066391 -171.315367 -1.406218 -178.854117
Spine -20.416895 -0.311494 0.391759
Head 8.256184 -1.698544 2.037694
LeftShoulder -12.623737 -24.746585 17.392652
LeftArm 8.528104 3.220003 -9.081434
LeftForeArm 9.313235 -0.000000 0.064749
LeftHand -7.960967 0.000000 -8.311750
LeftHandThumb1 -26.253704 0.000000 33.147579
RightShoulder -12.648817 -9.529920 -6.054694
RightArm 12.453938 36.451060 14.735109
RightForeArm -36.726038 -0.000000 6.668949
RightHand -6.642890 -0.000000 8.809159
RightHandThumb1 -24.326973 -0.000000 -32.862282
LeftUpLeg 1.201490 8.919189 0.513915
LeftLeg -5.927467 -0.000000 0.000000
LeftFoot -21.596917 26.639974 -15.568114
LeftToeBase 24.318763 -0.000000 -0.000000
RightUpLeg -0.049114 -9.061437 2.772784
RightLeg -3.703240 -0.000000 0.000000
RightFoot -21.856215 -25.865723 16.585590
RightToeBase 22.433657 -0.000000 -0.000000
137
root 18.952108 35.609786 -25.066915 -171.317020 -1.412699 -178.848955
Spine -20.410644 -0.309539 0.398453
Head 8.269375 -1.693434 2.019501
LeftShoulder -12.604530 -24.751130 17.390956
LeftArm 8.512401 3.131762 -9.098021
LeftForeArm 9.254090 -0.000000 0.060218
LeftHand -7.968235 -0.000000 -8.273103
LeftHandThumb1 -26.253704 0.000000 33.147579
RightShoulder -12.668007 -9.530189 -6.043103
RightArm 12.443143 36.487969 14.730180
RightForeArm -36.747500 -0.000000 6.681163
RightHand -6.601151 -0.000000 8.822553
RightHandThumb1 -24.326973 -0.000000 -32.862282
LeftUpLeg 1.197074 8.931967 0.520568
LeftLeg -5.918428 -0.000000 0.000000
LeftFoot -21.601154 26.632585 -15.560704
LeftToeBase 24.302274 -0.000000 -0.000000
RightUpLeg -0.046482 -9.062240 2.779709
RightLeg -3.702190 -0.000000 0.000000
RightFoot -21.852750 -25.854071 16.583834
RightToeBase 22.362810 -0.000000 -0.000000
138
root 18.951355 35.609576 -25.068399 -171.327821 -1.410616 -178.850885
Spine -20.397307 -0.320403 0.407440
Head 8.282079 -1.674952 1.991140
LeftShoulder -12.617106 -24.747938 17.399022
LeftArm 8.514143 3.001837 -9.131794
LeftForeArm 9.125599 0.000000 0.046774
LeftHand -8.015112 -0.000000 -8.210196
LeftHandThumb1 -26.253704 0.000000 33.147579
RightShoulder -12.669114 -9.522857 -6.047677
RightArm 12.443217 36.504291 14.745179
RightForeArm -36.753686 0.000000 6.704089
RightHand -6.631363 -0.000000 8.831123
RightHandThumb1 -24.326973 -0.000000 -32.862282
LeftUpLeg 1.211649 8.926087 0.519383
LeftLeg -5.918048 -0.000000 0.000000
LeftFoot -21.599548 26.633612 -15.559219
LeftToeBase 24.270494 -0.000000 -0.000000
RightUpLeg -0.039157 -9.060374 2.775235
RightLeg -3.690175 -0.000000 0.000000
RightFoot -21.867649 -25.857304 16.589468
RightToeBase 22.409317 -0.000000 -0.000000
